<?xml version="1.0" standalone="no"?>
<!DOCTYPE svg PUBLIC "-//W3C//DTD SVG 20010904//EN"
 "http://www.w3.org/TR/2001/REC-SVG-20010904/DTD/svg10.dtd">
<svg version="1.0" xmlns="http://www.w3.org/2000/svg"
 width="1186.000000pt" height="1186.000000pt" viewBox="0 0 1186.000000 1186.000000"
 preserveAspectRatio="xMidYMid meet">
<metadata>
Created by potrace 1.11, written by Peter Selinger 2001-2013
</metadata>
<g transform="translate(0.000000,1186.000000) scale(0.100000,-0.100000)"
fill="#000000" stroke="none">
<path d="M5765 11809 c-142 -50 -322 -114 -495 -174 -52 -19 -167 -59 -255
-90 -88 -31 -250 -88 -360 -127 -335 -117 -385 -135 -535 -188 -80 -28 -233
-82 -340 -120 -107 -38 -267 -94 -355 -125 -88 -31 -178 -63 -200 -70 -22 -7
-85 -29 -140 -48 -123 -44 -371 -132 -445 -158 -30 -11 -80 -28 -110 -39 -68
-23 -172 -60 -400 -140 -286 -101 -503 -177 -710 -250 -107 -37 -274 -96 -370
-130 -192 -68 -536 -188 -644 -226 -38 -13 -71 -26 -73 -28 -2 -2 3 -60 12
-130 9 -70 18 -148 20 -172 3 -24 7 -57 9 -72 3 -15 7 -52 11 -82 6 -58 11
-96 21 -170 3 -25 7 -58 9 -75 6 -62 17 -161 21 -190 2 -16 6 -50 9 -75 3 -25
8 -56 10 -70 2 -14 7 -50 10 -80 4 -30 8 -71 11 -90 2 -19 11 -93 19 -163 8
-70 17 -145 20 -165 2 -20 7 -59 10 -87 6 -49 31 -255 40 -325 3 -19 7 -57 10
-85 3 -27 7 -66 10 -85 3 -19 7 -57 10 -85 3 -27 8 -63 10 -80 2 -16 9 -73 15
-125 11 -96 18 -150 25 -205 6 -38 15 -116 21 -175 2 -25 6 -58 9 -75 4 -34
21 -174 30 -250 3 -27 7 -67 10 -87 12 -88 16 -124 40 -328 14 -118 28 -232
30 -252 3 -21 7 -56 10 -78 3 -22 7 -57 10 -77 9 -72 34 -289 45 -381 6 -52
12 -108 15 -125 2 -18 7 -54 10 -82 3 -27 8 -63 10 -80 4 -28 18 -150 31 -255
2 -25 7 -56 9 -70 2 -14 7 -52 10 -85 3 -33 8 -71 10 -85 2 -14 6 -50 9 -80 4
-30 8 -71 11 -90 7 -62 24 -203 30 -255 3 -27 8 -61 10 -75 2 -14 7 -50 10
-80 3 -30 7 -71 10 -90 3 -19 7 -53 9 -75 3 -22 7 -58 10 -80 3 -22 8 -65 11
-95 4 -30 8 -66 10 -80 2 -14 7 -47 10 -75 3 -27 7 -66 10 -85 2 -19 9 -78 15
-130 11 -98 18 -157 25 -200 2 -14 6 -52 10 -85 3 -33 8 -73 10 -90 2 -16 7
-52 10 -80 3 -27 8 -61 10 -75 4 -32 16 -134 21 -180 6 -59 26 -215 28 -216 0
0 98 -54 216 -119 118 -65 234 -128 258 -141 99 -56 131 -73 207 -114 44 -24
85 -46 90 -50 6 -4 48 -28 95 -52 47 -25 121 -66 165 -90 44 -25 116 -64 160
-88 44 -24 114 -62 155 -85 41 -23 100 -56 130 -72 30 -16 78 -42 105 -58 80
-44 234 -129 310 -170 39 -21 131 -72 205 -113 191 -105 226 -125 305 -167 39
-21 90 -49 115 -63 25 -14 70 -38 100 -55 30 -16 81 -45 113 -63 32 -19 60
-34 62 -34 2 0 34 -17 72 -38 109 -62 183 -102 263 -145 41 -21 80 -43 85 -47
6 -4 46 -27 90 -50 44 -24 163 -89 265 -145 102 -56 217 -119 255 -140 39 -21
104 -57 145 -80 41 -23 107 -59 145 -80 39 -21 133 -73 210 -115 77 -42 165
-91 195 -107 30 -17 85 -47 122 -67 l67 -37 215 120 c119 67 218 121 221 121
3 0 23 11 45 25 22 14 80 46 128 72 48 25 98 54 112 63 14 9 43 26 65 37 22
11 263 144 535 295 272 151 559 310 638 354 79 43 160 88 180 100 20 11 73 40
117 64 44 24 126 70 183 102 57 32 105 58 108 58 2 0 33 18 69 40 36 22 68 40
70 40 5 0 316 172 345 190 8 6 22 13 30 17 8 3 65 34 125 68 61 34 135 75 165
92 30 16 309 171 620 343 596 330 587 325 693 384 49 28 67 43 68 59 0 12 2
29 4 38 1 8 6 42 9 75 4 32 9 73 11 89 3 17 7 53 10 80 3 28 8 64 10 80 3 17
7 53 10 80 6 59 24 205 30 255 5 39 10 80 20 160 3 30 8 71 10 90 3 19 9 76
15 125 6 50 13 101 15 115 2 14 6 54 10 90 3 36 8 72 10 80 2 8 6 42 10 75 3
33 10 96 16 140 11 94 16 130 24 205 4 30 9 70 11 88 2 17 6 47 8 65 2 17 7
57 11 87 9 79 13 118 40 335 4 28 8 70 11 95 2 25 6 61 9 80 4 33 10 76 20
160 2 19 9 71 14 115 6 44 13 103 16 130 4 28 8 61 10 75 2 14 7 57 11 95 3
39 8 77 9 86 2 9 6 40 10 70 3 30 10 88 15 129 11 88 18 148 25 210 3 25 7 61
10 80 2 19 9 71 15 115 5 44 12 107 15 140 3 33 8 71 10 85 2 14 7 43 9 65 5
44 15 120 21 175 3 19 7 58 10 85 7 61 11 94 25 210 6 50 13 108 15 130 3 22
9 74 15 115 5 41 12 98 15 125 3 28 10 86 16 130 5 44 12 96 14 115 2 19 7 60
11 90 4 30 8 66 9 80 6 58 17 156 21 175 2 11 6 45 9 75 6 57 12 110 20 170 3
19 7 54 10 78 3 23 8 60 11 83 3 22 7 55 9 72 9 94 17 154 20 167 2 8 7 49 10
90 3 41 8 82 10 90 2 8 7 40 10 70 3 30 8 71 10 90 5 40 23 193 31 260 3 25 7
56 9 70 2 14 7 50 10 80 6 59 9 83 24 205 6 44 13 101 16 126 4 39 2 48 -12
54 -20 8 -346 122 -458 160 -38 13 -135 46 -215 73 -80 28 -296 102 -480 165
-184 64 -481 166 -660 227 -179 62 -356 122 -395 135 -38 13 -169 58 -290 100
-121 42 -278 96 -350 120 -71 24 -229 79 -350 121 -121 41 -260 89 -310 105
-49 16 -99 34 -110 38 -11 5 -69 26 -130 46 -178 60 -432 147 -700 240 -137
47 -254 88 -260 89 -5 2 -17 6 -25 9 -8 3 -49 17 -90 30 -41 14 -181 62 -310
106 -337 117 -467 161 -471 160 -2 0 -67 -23 -144 -50z"/>
</g>
</svg>
